<?xml version="1.0" encoding="utf-8"?>
<!DOCTYPE svg PUBLIC "-//W3C//DTD SVG 1.1//EN" "http://www.w3.org/Graphics/SVG/1.1/DTD/svg11.dtd">
<svg class="icons" version="1.1" xmlns="http://www.w3.org/2000/svg" xmlns:xlink="http://www.w3.org/1999/xlink">
    <symbol id="menu" viewBox="0 0 1024 1024">
	<path d="M128 768h768v-85.333h-768v85.333zM128 554.667h768v-85.333h-768v85.333zM128 256v85.333h768v-85.333h-768z"></path>
    </symbol>
    <symbol id="agenda" viewBox="0 0 1839 1024">
	<path class="path1" d="M278.666 490.878c2.779 0 5.559-0.618 8.152-1.729l378.534-154.959c8.461-3.52 13.896-11.735 13.587-20.752-0.247-9.079-5.867-16.984-14.761-19.949l-378.719-128.587c-6.485-2.223-13.834-1.050-19.517 2.965-5.682 4.076-9.079 10.685-9.079 17.725v283.422c0 7.226 3.459 14.205 9.635 18.096 3.644 2.47 7.844 3.767 12.167 3.767z"></path>
	<path class="path2" d="M1656.002 636.078c-76.893 0-142.73 47.618-169.534 114.505h-395.024c-27.051-67.073-92.642-114.505-169.164-114.505-76.831 0-142.668 47.618-169.473 114.505h-400.212c-21.987-55.338-70.655-96.903-129.945-109.997v-491.866c20.072-11.364 34.277-32.054 34.277-56.759 0-36.501-29.584-66.084-66.146-66.084-36.501 0-66.084 29.584-66.084 66.084 0 23.963 13.402 43.974 32.486 55.585v490.939c-88.689 12.785-157.182 88.257-157.182 180.528 0 101.103 81.957 182.998 182.998 182.998 76.893 0 142.792-47.618 169.534-114.505h400.151c27.051 67.196 92.642 114.505 169.473 114.505 76.522 0 142.421-47.618 169.164-114.505h395.024c27.051 67.196 92.642 114.505 169.534 114.505 101.103 0 182.998-81.895 182.998-182.998 0.124-101.041-81.834-182.937-182.875-182.937z"></path>
    </symbol>
    <symbol id="professor7" viewBox="0 0 754 1024">
	<path class="path1" d="M332.122 144.127c0 79.599-64.528 144.127-144.127 144.127s-144.127-64.528-144.127-144.127c0-79.599 64.528-144.127 144.127-144.127s144.127 64.528 144.127 144.127z"></path>
	<path class="path2" d="M310.38 958.165v-313.646h9.158l13.353-260.459 7.525 2.53v-75.666l-18.86-0.961h-81.109l-54.948 63.722-53.155-63.722-116.621 15.754-7.653 265.006h49.537l2.626 53.795h7.557v313.646h-9.927l-57.862 12.488v53.347h49.248l57.51-9.382 0.512 9.382h63.658v-322.452h36.28v322.452h63.69l0.512-9.382 57.478 9.382h49.248v-53.347l-57.83-12.488z"></path>
	<path class="path3" d="M714.005 773.211h-389.6v-522.999h389.6v522.999zM356.426 741.19h325.558v-458.957h-325.558v458.957z"></path>
	<path class="path4" d="M656.623 367.601h97.408v108.071h-97.408v-108.071z"></path>
	<path class="path5" d="M385.213 510.351h69.774v169.295h-69.774v-169.295z"></path>
	<path class="path6" d="M471.413 463.856h69.742v215.758h-69.742v-215.758z"></path>
	<path class="path7" d="M556.461 367.601h69.774v312.013h-69.774v-312.013z"></path>
	<path class="path8" d="M561.232 220.817c0-18.38-15.53-33.334-34.679-33.334s-34.679 14.954-34.679 33.334h-58.054v84.087h185.466v-84.087h-58.054zM526.554 236.699c-7.717 0-14.025-6.244-14.025-14.025s6.276-14.025 14.025-14.025 14.025 6.244 14.025 14.025-6.308 14.025-14.025 14.025z"></path>
    </symbol>
    <symbol id="shake" viewBox="0 0 1024 1024">
	<path class="path1" d="M1018.44 373.16l-215.828-215.886c-4.936-4.856-12.771-4.858-17.605 0l-49.693 49.5c-2.359 2.363-3.625 5.554-3.625 8.829 0 3.377 1.26 6.466 3.625 8.774l21.885 21.932-51.642 51.696-193.006 22.999-192.954-22.97-51.853-51.829 21.803-21.766c2.279-2.31 3.65-5.421 3.65-8.776 0-3.297-1.343-6.466-3.65-8.829l-49.652-49.502c-4.844-4.856-12.718-4.856-17.588 0l-216.75 215.88c-4.858 4.825-4.86 12.718 0 17.543l49.49 49.584c0.477 0.483 0.995 0.952 1.532 1.399l103.068 162.324c5.874 10.887 16.542 29.893 21.637 34.935l215.654 215.722c9.953 9.931 22.782 15.649 35.445 15.649 9.834 0 18.903-3.574 25.424-10.115l3.205-3.088 0.131 0.131c12.757 12.767 34.236 14.916 51.327 5.687 17.16 9.228 38.676 7.080 51.341-5.638l0.16-0.188 3.168 3.090c6.463 6.543 15.507 10.113 25.436 10.113 12.556 0 25.487-5.716 35.416-15.647l215.724-215.667 122.597-196.194 52.128-52.156c2.306-2.335 3.645-5.446 3.645-8.772 0.002-3.324-1.284-6.433-3.645-8.763zM797.245 200.55c9.658 0 17.33 7.864 17.33 17.443 0 9.66-7.723 17.523-17.33 17.523-9.714 0-17.629-7.916-17.629-17.521 0-9.581 7.864-17.414 17.629-17.445zM208.103 216.437c1.962-9.39 11.323-15.426 20.81-13.441 9.39 1.985 15.442 11.268 13.429 20.66-1.972 9.419-11.268 15.507-20.66 13.523-9.46-1.987-15.55-11.379-13.578-20.742zM643.584 762.667c2.98 3.090 4.297 6.463 1.745 8.993l-25.973 25.944c-0.748 0.752-2.007 0.987-2.843 0.987-2.15 0-4.401-1.047-6.175-2.816l-31.232-31.662-96.029-95.891-26.604 26.497c0.070 0.070 0.123 0.15 0.193 0.215l103.18 103.229c0.987 1.018 3.457 3.914 1.313 6.033 0 0-20.791 20.822-25.111 25.117-4.27 4.297-9.015-1.827-9.015-1.827l-106.346-106.437c-17.508 0-35.017-0.002-52.525-0.002 0.416 0.592 0.864 1.161 1.391 1.677l79.368 79.313c2.576 2.552 5.509 5.943 3.031 8.436l-20.609 20.523c-2.081 2.064-5.515 1.399-8.679-1.905l-215.216-215.126c-6.429-9.259-58.575-97.321-95.615-160.047l154.077-154.036 33.366 33.97c2.185 2.226 5.071 3.541 8.184 3.727l85.701 9.232c-9.873 10.625-15.254 25.946-13.134 42.179l5.9 46.551c3.539 27.179 26.761 47.223 52.425 44.136l56.32-5.284 184.893 186.241c2.98 3.027 2.98 7.909 0 10.865l-29.835 29.889c-2.867 2.853-7.991 2.851-10.869 0.002l-118.014-118.041v56.529l122.737 122.788zM817.533 614.074l-136.491 136.542-12.1-12.88 38.265-38.443c26.061-26.061 18.217-52.55-16.687-87.333l-149.801-147.708c0 0 8.184-7.004 8.72-7.406l-8.368-27.316-106.371 9.742c-0.268 0-1.395 0.027-1.706 0.080-3.877 0-7.469-3.867-8.102-8.774l-5.982-46.498c-0.389-2.951 0.295-5.931 1.972-8.051 0.846-1.071 2.255-2.388 4.348-2.736l292.471-35.6c3.088-0.162 5.956-1.532 8.151-3.703l33.352-33.968 154.12 154.036c-37.036 62.779-89.197 150.753-95.791 160.014z"></path>
    </symbol>
    <symbol id="teacher7" viewBox="0 0 1162 1024">
	<path class="path1" d="M332.1 144.129c0 79.6-64.529 144.129-144.129 144.129s-144.129-64.529-144.129-144.129c0-79.6 64.529-144.129 144.129-144.129s144.129 64.529 144.129 144.129z"></path>
	<path class="path2" d="M1147.475 183.609h-348.429v-39.481h-92.383v39.481h-354.506v47.533h23.524v104.648l-54.132-25.836h-81.124l-54.952 63.713-53.163-63.713-116.802 21.698-7.456 259.066h49.509l2.684 53.797h7.531v313.609h-9.954l-57.823 12.564v53.312h49.248l57.487-9.358 0.522 9.358h63.676v-322.444h36.275v322.444h63.676l0.522-9.358 57.487 9.358h49.248v-53.312l-57.898-12.526h-9.879v-313.609h9.134l11.781-238.599 44.402 20.095v274.203h340.6v87.35l-187.971 212.092h67.553l126.868-143.346v143.346h38.847v-143.197l126.718 143.197h68.635l-189.052-212.092v-87.35h379.596v-469.108h14.875v-47.533h-14.875zM1114.22 665.281h-705.247v-224.209l138.574 62.744-0.522-86.38-138.052-65.801v-120.493h705.247v434.138z"></path>
	<path class="path3" d="M901.084 562.46h74.227v74.189h-74.227v-74.189z"></path>
	<path class="path4" d="M806.241 497.852h74.227v138.835h-74.227v-138.835z"></path>
	<path class="path5" d="M715.536 411.919h74.189v224.73h-74.189v-224.73z"></path>
	<path class="path6" d="M622.035 336.313h74.264v300.374h-74.264v-300.374z"></path>
	<path class="path7" d="M991.826 552.431l43.47 10.029-10.029-43.47-12.564 12.601-322.705-282.069-7.27 8.351 322.183 281.51z"></path>
    </symbol>
    <symbol viewBox="0 0 71.68 71.68" catalog="seo-and-sem" id="longterm">
	<path d="M64.96,0H6.72C2.911,0,0,2.912,0,6.72v58.239c0,3.809,2.911,6.721,6.72,6.721h58.24c3.808,0,6.72-2.912,6.72-6.721V6.72C71.68,2.912,68.768,0,64.96,0z M67.198,64.959c0,1.346-0.896,2.24-2.238,2.24H6.72c-1.344,0-2.24-0.896-2.24-2.24V6.72c0-1.345,0.896-2.24,2.24-2.24h58.24c1.344,0,2.238,0.896,2.238,2.24V64.959z"/>
	<path d="M54.432,27.776l0.225-1.119c0.225-0.672-0.225-1.344-0.896-1.567c-0.671-0.225-1.344,0.225-1.568,0.896l-0.224,1.119c-1.344-0.224-2.464,0-2.688,0.672L43.904,48.16l6.943,1.791l5.376-20.383C56.447,29.119,55.776,28.224,54.432,27.776z"/>
	<path d="M57.792,29.344c-0.225,0-0.674,0.225-0.674,0.447l-2.688,10.08l1.12,0.225l2.688-10.08C58.24,29.792,58.24,29.344,57.792,29.344z"/>
	<path d="M45.92,54.881c0,0,1.792-1.568,3.136-2.912l-4.479-1.121C45.024,52.641,45.92,54.881,45.92,54.881z"/>
	<path d="M44.575,53.76h-0.447c-1.12,0-2.24,0.225-6.721,0.225c-0.447,0-0.896-0.225-1.344-0.672c-0.672-0.449-1.12-0.896-2.016-0.896l0,0c-0.672,0-1.345,0.447-2.912,1.119c-0.672,0.449-1.792,0.896-2.24,1.121c0-0.225,0-0.895,0.224-1.121c0.225-0.895,0.225-1.791,0-2.238c-0.224-0.225-0.447-0.225-0.672-0.225l0,0c-1.344,0-2.688,1.568-4.256,2.912C23.296,54.881,22.176,56,21.728,56l0,0c-0.448-0.672,1.12-3.809,1.568-5.15c0.896-2.24,1.344-2.689,0.672-3.137c-0.225-0.225-0.448-0.225-1.12,0c-0.896,0.672-2.016,1.566-2.912,2.688c-2.016,1.791-4.032,3.809-5.6,3.135c-0.225-0.223-0.672,0-0.896,0.227c-0.224,0.225,0,0.672,0.225,0.895c2.239,1.119,4.479-1.121,6.943-3.359c0.672-0.447,1.12-1.119,1.792-1.566c-0.224,0.223-0.224,0.447-0.448,0.672c-1.344,2.912-2.239,5.15-1.567,6.271c0.224,0.225,0.448,0.445,0.896,0.445l0,0c0.896,0,2.017-1.119,3.36-2.463c1.12-1.121,2.24-2.24,3.136-2.465c0,0.225,0,0.672-0.224,1.121c-0.225,0.896-0.225,1.791,0,2.24C27.776,55.776,28,56,28.224,56c0.672,0,1.568-0.447,2.912-1.344c0.672-0.449,2.016-1.121,2.24-1.121l0,0c0.447,0,0.896,0.225,1.344,0.672c0.448,0.449,1.12,0.896,2.017,0.896c4.703,0,5.601,0,6.943-0.223h0.448c0.224,0,0.447-0.225,0.447-0.674C44.575,53.76,45.024,53.76,44.575,53.76z"/>
	<rect x="13.44" y="14.784" width="44.8" height="4.48"/>
	<rect x="13.44" y="23.744" width="28.225" height="4.479"/>
	<rect x="13.44" y="34.944" width="28.225" height="4.48"/>
    </symbol>
    <symbol viewBox="0 0 50 50" catalog="calendar-icons" id="business79">
	<path d="M38.25,10.25h-1.123c0.029-0.092,0.058-0.186,0.058-0.288c0-0.53-0.431-0.962-0.962-0.962s-0.961,0.432-0.961,0.962c0,0.103,0.028,0.196,0.059,0.288h-3.68c0.029-0.092,0.058-0.186,0.058-0.288c0-0.53-0.431-0.962-0.962-0.962c-0.53,0-0.961,0.432-0.961,0.962c0,0.103,0.029,0.196,0.059,0.288h-3.681c0.029-0.092,0.058-0.186,0.058-0.288c0-0.53-0.43-0.962-0.961-0.962s-0.961,0.432-0.961,0.962c0,0.103,0.028,0.196,0.058,0.288h-3.681c0.029-0.092,0.059-0.186,0.059-0.288c0-0.53-0.431-0.962-0.961-0.962c-0.531,0-0.962,0.432-0.962,0.962c0,0.103,0.028,0.196,0.058,0.288h-3.68c0.03-0.092,0.059-0.186,0.059-0.288c0-0.53-0.43-0.962-0.961-0.962s-0.962,0.432-0.962,0.962c0,0.103,0.028,0.196,0.058,0.288H12.25c-1.518,0-2.75,1.234-2.75,2.75v26c0,1.518,1.232,2.75,2.75,2.75h22.895L41,35.895V13C41,11.484,39.767,10.25,38.25,10.25z M39.5,35.273l-0.311,0.311h-2.355c-1.101,0-2,0.9-2,2v2.356l-0.311,0.31H12.25C11.561,40.25,11,39.689,11,39V14h28.5V35.273z"/>
	<path d="M26.222,30.636l-1.029-2.484h0.011l0.397-0.457c-0.192,0.068-0.391,0.11-0.602,0.11c-0.21,0-0.409-0.043-0.603-0.111l0.398,0.458h0.011l-1.028,2.484l1.222,1.221L26.222,30.636z"/>
	<path d="M18.523,38.184h12.953c1.383,0,2.509-1.125,2.509-2.508V18.708c0-1.383-1.126-2.508-2.509-2.508H18.523c-1.383,0-2.509,1.125-2.509,2.508v0.57h1.566c0.521,0,0.94,0.423,0.94,0.941s-0.42,0.938-0.94,0.938h-1.566v1.607h1.566c0.521,0,0.94,0.422,0.94,0.94s-0.42,0.94-0.94,0.94h-1.566v1.604h1.566c0.521,0,0.94,0.422,0.94,0.941c0,0.519-0.42,0.94-0.94,0.94h-1.566v1.604h1.566c0.521,0,0.94,0.422,0.94,0.94s-0.42,0.94-0.94,0.94h-1.566v1.607h1.566c0.521,0,0.94,0.42,0.94,0.938c0,0.52-0.42,0.941-0.94,0.941h-1.566v0.57C16.015,37.059,17.141,38.184,18.523,38.184zM23.922,27.453c-0.786-0.53-1.329-1.577-1.329-2.52c0-1.328,1.077-2.407,2.406-2.407c1.33,0,2.407,1.079,2.407,2.407c0,0.942-0.542,1.989-1.331,2.52c1.886,0.477,3.283,2.116,3.283,3.329c0,1.435-8.718,1.435-8.718,0C20.641,29.569,22.039,27.93,23.922,27.453z"/>
    </symbol>
    <symbol viewBox="0 0 32 32" catalog="documents-set" id="documents14">
	<path d="M26.312,15.456c-0.099-0.666-0.671-1.146-1.343-1.146H14.083l-1.977-2.34c-0.419-0.492-1.034-0.802-1.681-0.802H3.352c-0.504,0-0.983,0.236-1.309,0.622c-0.325,0.387-0.464,0.917-0.379,1.414l0.188,1.106H1.728c-0.396,0-0.771,0.161-1.027,0.461c-0.26,0.301-0.373,0.693-0.312,1.084l2.196,14.248c0.133,0.858,0.871,1.489,1.738,1.489H27.12c0.395,0,0.771-0.174,1.027-0.472c0.257-0.299,0.373-0.689,0.315-1.079L26.312,15.456z"/>
	<path d="M20.891,4.823h-8.514c-0.587,0-1.063,0.53-1.063,1.118s0.477,1.118,1.063,1.118h8.514c0.589,0,1.065-0.53,1.065-1.118S21.479,4.823,20.891,4.823z"/>
	<path d="M30.924,12.658c-0.246-0.285-0.604-0.464-0.982-0.464h-2.416l0.55,5.095l1.313,8.901l1.838-12.492C31.279,13.326,31.171,12.944,30.924,12.658z"/>
	<path d="M9.271,2.527h14.864v10.091h2.055V1.779c0-0.716-0.598-1.307-1.314-1.307H8.438c-0.786,0-1.402,0.647-1.402,1.433v7.813h2.235V2.527z"/>
	<path d="M20.891,8.932h-8.514c-0.511,0-0.937,0.404-1.04,0.899c0.729,0.186,1.392,0.583,1.891,1.168l0.155,0.168h7.508c0.589,0,1.065-0.53,1.065-1.118C21.956,9.461,21.479,8.932,20.891,8.932z"/>
    </symbol>
    <symbol viewBox="0 0 512 512" catalog="talking" id="woman127">
	<path d="M474.557,38.94H198.718c-5.335,0-9.658,4.325-9.658,9.659v68.46c-5.819-1.496-11.828-2.371-17.993-2.563c-0.072-0.003-0.146-0.004-0.218-0.004h-3.755c-0.073,0-0.146,0.001-0.219,0.004c-52.664,1.643-94.141,52.55-100.862,123.797c-1.678,17.787-0.754,30.548-0.011,40.808c1.25,17.229,1.175,23.554-8.781,30.742c-1.828,1.32-2.908,3.438-2.902,5.693c0.006,2.254,1.097,4.367,2.931,5.678c5.522,3.945,15.733,6.208,28.017,6.208c3.285,0,6.607-0.173,9.797-0.497c-22.031,12.488-67.278,39.668-67.278,83.319v55.816c0,3.866,3.134,7,7,7h268.374c3.866,0,7-3.134,7-7v-55.816c0-43.631-45.205-70.806-67.278-83.319c3.188,0.324,6.511,0.497,9.797,0.497c12.282,0,22.494-2.263,28.017-6.208c1.834-1.311,2.925-3.424,2.931-5.678s-1.075-4.373-2.902-5.693c-9.956-7.188-10.031-13.514-8.781-30.75c0.742-10.253,1.667-23.013-0.012-40.799c-0.104-1.104-0.217-2.202-0.337-3.296h74.851v62.785c0,3.906,2.353,7.429,5.963,8.924c1.194,0.495,2.449,0.736,3.693,0.736c2.513,0,4.984-0.982,6.832-2.83l70.098-69.614h41.528c5.335,0,9.659-4.324,9.659-9.659V48.599C484.216,43.265,479.892,38.94,474.557,38.94z M241.479,227.697c-1.935,7.522-6.841,12.052-10.55,12.503l-0.261,0.034c-2.798,0.371-5.099,2.386-5.836,5.109l-0.086,0.315c-8.364,30.335-30.754,62.574-55.774,62.574c-24.942,0-47.351-32.23-55.76-62.514l-0.102-0.375c-0.736-2.722-3.035-4.735-5.829-5.108l-0.296-0.04c-3.66-0.501-8.739-5.013-10.514-12.47c-2.203-9.257,2.266-15.57,3.117-15.881c5.968,1.971,11.979,2.97,17.885,2.97c34.444,0,56.395-33.281,60.291-39.672c8.206,3.854,14.255,7.868,18.941,12.555c9.461,9.461,13.105,19.456,15.775,26.775c0.768,2.104,1.637,4.489,2.468,6.149c0.898,1.797,2.525,3.121,4.467,3.636s4.01,0.17,5.682-0.945c1.472-0.983,3.177-2.446,5.22-4.482c2.459-2.458,4.599-5.075,6.371-7.791c0.045,0.002,0.063,0.003,0.053,0.001c1.356,0.347,2.598,1.389,3.544,3.012C242.34,217.475,242.784,222.58,241.479,227.697z M459.216,209.998h-36.492l-7.312,7.261l-43.97,43.667v-50.928H267.21c-9.01-36.926-28.161-66.014-53.15-81.98V63.94h245.156V209.998z"/>
	<circle cx="291.638" cy="139.511" r="14"/>
	<circle cx="336.638" cy="139.511" r="14"/>
	<circle cx="381.638" cy="139.511" r="14"/>
    </symbol>
    <symbol viewBox="0 0 126 126" catalog="data-analytics" id="bars28">
<path opacity="0.9" d="M81.859,16.667H28.666v92.666h67.668v-75.72L81.859,16.667z M81.168,20.477L92.293,33.5H81.168V20.477zM93.334,106.333H31.666V19.667h46.502V36.5h15.166V106.333z"/>
<polygon opacity="0.9" points="74.334,37.167 74.334,34.833 49.167,34.833 35.834,34.833 35.834,37.167 49.167,37.167"/>
<polygon opacity="0.9" points="74.334,43.667 74.334,41.333 49.167,41.333 35.834,41.333 35.834,43.667 49.167,43.667"/>
<polygon opacity="0.9" points="74.334,50.167 74.334,47.833 49.167,47.833 35.834,47.833 35.834,50.167 49.167,50.167"/>
<rect x="36.583" y="98" opacity="0.9" width="49.584" height="2.333"/>
<rect x="40.667" y="68.167" opacity="0.9" width="6.674" height="24.172"/>
<rect x="62.271" y="68.167" opacity="0.9" width="6.674" height="24.172"/>
<rect x="73.159" y="61.833" opacity="0.9" width="6.674" height="30.505"/>
<rect x="51.381" y="59.103" opacity="0.9" width="6.674" height="33.235"/>
</symbol>
<symbol viewBox="0 0 100 100" catalog="basic-application" id="clipboard44">
<path fill="#020202" d="M74.055,18.42L74.055,18.42H63.883l0.367,1.656c0.031,0.139,0.047,0.266,0.047,0.386v7.262c0,1.001-0.815,1.815-1.816,1.815H37.519c-1.001,0-1.815-0.814-1.815-1.815v-7.262c0-0.121,0.015-0.247,0.046-0.386l0.367-1.656H25.946c-1.752,0-3.178,1.425-3.178,3.177v63.541c0,1.752,1.426,3.177,3.178,3.177h20.431h7.247h20.431c1.752,0,3.178-1.425,3.178-3.177V21.597C77.232,19.845,75.807,18.42,74.055,18.42z M74.508,85.138c0,0.25-0.204,0.454-0.454,0.454H53.624h-7.247H25.946c-0.25,0-0.454-0.204-0.454-0.454V21.597c0-0.25,0.204-0.454,0.454-0.454h7.034v6.581c0,2.502,2.036,4.539,4.539,4.539h24.962c2.503,0,4.539-2.036,4.539-4.539v-6.581h7.034c0.25,0,0.454,0.204,0.454,0.454V85.138zM37.418,26.236v-6.391c0-0.883,0.714-1.598,1.597-1.598h5.935c0-2.647,2.248-4.793,5.022-4.793c2.772,0,5.021,2.146,5.021,4.793h5.991c0.883,0,1.598,0.715,1.598,1.598v6.391c0,0.882-0.715,1.598-1.598,1.598h-21.97C38.132,27.834,37.418,27.119,37.418,26.236zM43.93,43.776l1.86,1.86L35.434,55.993l-6.387-6.388l1.86-1.86l4.527,4.527L43.93,43.776z M43.93,57.743l1.86,1.86L35.434,69.959l-6.387-6.388l1.86-1.86l4.527,4.527L43.93,57.743z M48.636,47.051h21.5v2.833h-21.5V47.051z M48.636,62.434h21.5v2.833h-21.5V62.434z"/>
</symbol>
<symbol viewBox="0 0 18.012 23.303" catalog="webdev-seo" id="support3">
<path d="M16.93,8.353C16.731,3.703,13.266,0,9.007,0c-4.26,0-7.725,3.703-7.924,8.352C0.46,8.518,0,9.079,0,9.752v3.619c0,0.803,0.65,1.454,1.455,1.454s1.456-0.65,1.456-1.454h0.001v-0.28c0.688,3.203,2.355,7.35,6.095,7.35c3.738,0,5.406-4.144,6.095-7.347v0.277c0,0.641,0.417,1.178,0.992,1.372c-0.041,0.734-0.438,4.607-4.223,6.223c-0.237-0.147-0.526-0.197-0.81-0.094L9.396,21.49c-0.484,0.179-0.731,0.718-0.553,1.199c0.181,0.486,0.717,0.733,1.202,0.555l1.665-0.617c0.363-0.134,0.593-0.47,0.61-0.832c4.24-1.875,4.675-6.349,4.717-7.058c0.565-0.198,0.975-0.731,0.975-1.366V9.752C18.012,9.08,17.551,8.518,16.93,8.353z M9.007,2.761c-3.311,0-6.039,2.629-6.464,6.033C2.43,8.666,2.296,8.561,2.146,8.479C2.284,4.422,5.299,1.18,9.007,1.18c3.707,0,6.721,3.242,6.86,7.299c-0.149,0.082-0.283,0.187-0.396,0.313C15.046,5.389,12.318,2.761,9.007,2.761z"/>
</symbol>
<symbol viewBox="0 0 126 126" catalog="data-analytics" id="user107">
<circle cx="38.551" cy="31.111" r="2.84"/>
<circle cx="30.734" cy="31.111" r="2.84"/>
<circle cx="46.477" cy="31.111" r="2.84"/>
<path d="M106.552,100.944l-2.86-12.335c-0.877-0.9-1.91-1.654-3.105-2.27c-5.995-3.073-12.2-5.622-18.472-8.029c-0.469-0.177-1.027-0.536-1.222-0.945c-0.51-1.133-0.865-2.334-1.236-3.517c-0.227-0.763-0.427-1.475-1.26-1.843c-0.227-0.1-0.427-0.535-0.427-0.818c0.047-2.755-0.595-5.645,1.451-8.05c0.062-0.073,0.088-0.18,0.132-0.268c1.104-2.411,1.293-5.172,2.835-7.417c0.038-0.05,0.047-0.124,0.056-0.188c0.18-1.719,0.362-3.423,0.51-5.136c0.018-0.209-0.171-0.588-0.354-0.654c-0.848-0.297-0.804-0.982-0.798-1.663c0-3.347,0-3.833-0.006-7.179c0-1.946-0.571-3.673-2.04-4.998c-1.678-1.504-3.396-2.961-5.118-4.412c-0.827-0.704-0.9-1.245-0.12-2.017c0.344-0.341,0.779-0.588,1.183-0.874c-0.088-0.132-0.177-0.262-0.262-0.395c-0.521,0-1.045-0.067-1.548,0.009c-1.904,0.307-3.818,0.577-5.684,1.016c-3.57,0.842-7.035,1.957-9.928,4.348c-0.245,0.202-0.483,0.408-0.714,0.619V22.567c0-4.868-3.96-8.828-8.828-8.828H28.276c-4.867,0-8.828,3.96-8.828,8.828v17.142c0,4.868,3.961,8.828,8.828,8.828H42.56l9.128,6.742c0.759,0.563,1.638,0.892,2.565,0.994c0.017,0.057,0.03,0.114,0.047,0.171c0.303,1.054,0.9,2.049,1.071,3.12c0.326,2.14,1.127,4,2.572,5.619c0.235,0.268,0.418,0.715,0.389,1.071c-0.115,1.643-0.283,3.291-0.507,4.927c-0.047,0.318-0.379,0.795-0.653,0.856c-1.095,0.224-1.263,1.065-1.524,1.922c-0.342,1.125-0.709,2.246-1.145,3.334c-0.136,0.342-0.478,0.692-0.81,0.845c-1.945,0.842-3.93,1.625-5.89,2.446c-2.084,0.877-4.191,1.716-6.229,2.681c-2.096,1.006-4.135,2.134-6.192,3.238c-1.21,0.647-2.34,1.366-3.285,2.254l-2.86,12.186c13.934,0,21.209,10.075,35.708,11.317l-5.342-7.373l8.285-22.66l-2.563-5.504h5.133l-2.569,5.504l8.285,22.66l-5.203,7.193C81.528,110.315,98.379,100.944,106.552,100.944z M56.163,53.282c-0.142,0.093-0.303,0.139-0.465,0.139c-0.176,0-0.352-0.054-0.499-0.164l-11.046-8.158H27.294c-2.553,0-4.629-2.077-4.629-4.629V22.137c0-2.553,2.076-4.629,4.629-4.629h21.882c2.553,0,4.629,2.076,4.629,4.629V41.11l2.712,11.272C56.6,52.727,56.458,53.085,56.163,53.282z"/>
</symbol>
<symbol viewBox="0 0 31.427 31.537" catalog="education" id="education25">
<path d="M30.85,1.455H17.334V0H13.75v1.455H0.914H0v1.753h0.914V20.5h13.211v3.22l-7.291,7.817h2.62l4.921-5.284v5.284h1.507V26.26l4.914,5.277h2.663l-7.334-7.817V20.5H30.85V3.208h0.577V1.455H30.85z M29.56,19.21H16.125h-2H2.203V3.208H29.56V19.21z"/>
<polygon points="10.577,10.297 10.577,10.444 10.586,14.987 11.219,15.252 12.839,14.433 12.837,13.604 12.83,7.707 10.963,7.0359.255,7.703 9.255,9.82 10.439,10.246"/>
<polygon points="13.038,7.561 13.038,7.707 13.047,13.691 13.68,13.953 15.3,13.136 15.291,5.363 13.425,4.691 11.717,5.35911.717,7.084 12.9,7.51"/>
<polygon points="8.102,13.598 8.104,13.743 8.11,16.252 8.758,16.521 10.378,15.702 10.367,10.445 9.255,10.043 8.502,9.7716.793,10.439 6.793,13.124 7.964,13.547"/>
<polygon points="7.902,16.907 7.9,16.164 7.894,13.743 6.027,13.071 4.319,13.739 4.319,16.907 6.283,17.726"/>
<rect x="18.398" y="5.422" width="9.688" height="0.875"/>
<rect x="18.398" y="7.391" width="9.688" height="0.875"/>
<rect x="18.398" y="9.322" width="9.688" height="0.875"/>
<rect x="18.398" y="11.291" width="9.688" height="0.875"/>
<rect x="24.242" y="13.228" width="3.844" height="0.875"/>
<rect x="24.242" y="15.196" width="3.844" height="0.875"/>
<rect x="18.398" y="13.228" width="5.063" height="2.844"/>
</symbol>
<symbol viewBox="0 0 28.895 30.551" catalog="education" id="paper98">
<path d="M2.74,0.738v27.168l18.17,0.039V5.425l-4.7-4.687H2.74z M19.759,26.789L19.759,26.789L3.895,26.755V1.893h11.104v5.213h4.76V26.789z M19.758,5.952h-3.605V2.31l3.605,3.594V5.952z M6.002,9.125H17.96v1.01H6.002V9.125z M6.002,11.072H17.96v1.008H6.002V11.072z M13.531,6.265H5.979V5.256h7.552V6.265z M13.531,8.213H5.979V7.204h7.552V8.213z M5.956,13.163H17.96v1.009H5.956V13.163zM5.956,15.11H17.96v1.008H5.956V15.11z M5.956,16.948h7.624v1.01H5.956V16.948z M17.018,28.966h1.151v1.585L0,30.514V3.345h1.864v1.154H1.153v24.862l15.865,0.035V28.966z M28.454,17.536L28.416,1.123l-0.667,0.002L27.745,0l-1.94,0.004l0.003,1.126L25.16,1.132V1.131l-1.456,0.003l-0.682,0.003l0.605,9.304l0.584-0.002l-0.206-8.036l1.028-0.002l0.035,15.133c-0.275,0.042-0.489,0.251-0.488,0.515c0,0.264,0.214,0.473,0.492,0.516v0.018l2.134-0.005l1.103-0.002c0,0,0-0.001,0.001,0l0.146-0.001v-0.027c0.25-0.062,0.438-0.26,0.438-0.506S28.705,17.598,28.454,17.536z M25.646,17.516l-0.039-15.81L27.842,1.7l0.037,15.81L25.646,17.516z M27.1,2.935l0.013,5.544L26.04,8.481l-0.013-5.544L27.1,2.935z M25.781,24.965l0.171,0.01l0.244,0.987h0.277l0.175,1.374h0.354l0.11-1.375l0.308-0.001l0.17-0.897l0.252,0.014l0.615-6.03l-3.385,0.009L25.781,24.965z M27.326,24.471l-1.032-0.056l-0.572-4.788l2.1-0.006L27.326,24.471z"/>
</symbol>
<symbol viewBox="0 0 50 50" catalog="humans-resources" id="businessman34">
<polygon points="23.013,37.576 23.014,37.574 23.012,37.574"/>
<path d="M32.996,26.125c-1.206,0-2.327,0.362-3.268,0.979c-1.133-0.71-2.394-1.289-3.76-1.635c2.169-1.459,3.662-4.334,3.662-6.925c0-3.655-2.964-6.619-6.618-6.619s-6.618,2.963-6.618,6.619c0,2.591,1.493,5.466,3.662,6.925c-5.186,1.314-9.027,5.816-9.027,9.151c0,1.972,5.991,2.956,11.982,2.955l-3.356-3.355l2.826-6.832h-0.029l-1.098-1.259c0.53,0.19,1.084,0.305,1.658,0.305c0.573,0,1.126-0.114,1.656-0.304l-1.098,1.257h-0.027l2.826,6.832l-3.356,3.355c2.37,0,4.737-0.155,6.736-0.464c0.936,0.608,2.049,0.966,3.246,0.966c3.295,0,5.976-2.681,5.976-5.976C38.972,28.805,36.291,26.125,32.996,26.125z M32.996,37.076c-2.743,0-4.976-2.232-4.976-4.976s2.232-4.976,4.976-4.976s4.976,2.232,4.976,4.976S35.739,37.076,32.996,37.076z"/>
<path d="M33.191,29.585c0.16,0,0.305-0.073,0.434-0.22c0.128-0.147,0.192-0.307,0.192-0.48s-0.049-0.316-0.146-0.429c-0.097-0.113-0.224-0.169-0.38-0.169s-0.3,0.079-0.43,0.237s-0.194,0.321-0.194,0.489c0,0.169,0.047,0.307,0.141,0.413C32.902,29.532,33.03,29.585,33.191,29.585z"/>
<path d="M33.942,34.885c-0.182,0.13-0.338,0.195-0.469,0.195c-0.13,0-0.194-0.111-0.194-0.334c0-0.111,0.009-0.25,0.027-0.417l0.158-1.81c0.068-0.708,0.103-1.086,0.103-1.132c0-0.532-0.177-0.798-0.529-0.798c-0.312,0-0.629,0.154-0.949,0.461c-0.32,0.308-0.563,0.68-0.73,1.116l0.269,0.186c0.399-0.594,0.666-0.891,0.801-0.891s0.202,0.148,0.202,0.445c0,0.111-0.007,0.235-0.019,0.371l-0.204,1.81c-0.05,0.504-0.074,0.863-0.074,1.076c0,0.214,0.048,0.392,0.146,0.536s0.266,0.216,0.504,0.216c0.758,0,1.309-0.458,1.651-1.374l-0.241-0.167C34.275,34.585,34.125,34.755,33.942,34.885z"/>
</symbol>
<symbol viewBox="0 0 100 100" catalog="basic-application" id="folder81">
<path d="M76.383,29.742v0.315h-4v-0.315c0-0.213-0.174-0.387-0.388-0.387H32.3c-0.83,0-1.574-0.513-1.869-1.288l-2.844-7.462H15.38l0.002,9.125v37.674c0,0.213,0.174,0.387,0.387,0.387h4.137V39.598c0-1.573,1.274-2.848,2.848-2.848h25.002v35.04H15.769c-2.418,0-4.387-1.968-4.387-4.387V29.742l0.012-11.125c-0.004-0.533,0.206-1.044,0.581-1.422c0.376-0.378,0.886-0.59,1.419-0.59h15.572c0.83,0,1.572,0.513,1.869,1.288l2.843,7.462h38.317C74.415,25.355,76.383,27.323,76.383,29.742z M88.583,42.172v38.104c0,1.72-1.399,3.119-3.119,3.119H54.102c-1.72,0-3.119-1.399-3.119-3.119V35.645c0-1.72,1.399-3.119,3.119-3.119h25.603L88.583,42.172z M80.44,41.422h3.892l-3.892-4.229V41.422z M85.963,44.042h-6.832c-0.722,0-1.31-0.587-1.31-1.31v-7.586H54.102c-0.275,0-0.5,0.224-0.5,0.499v44.631c0,0.275,0.224,0.499,0.5,0.499h31.361c0.275,0,0.5-0.224,0.5-0.499V44.042z M56.109,48.612c0,0.889,0.723,1.612,1.611,1.612h22.767c0.889,0,1.611-0.724,1.611-1.612c0-0.888-0.723-1.611-1.611-1.611H57.721C56.833,47,56.109,47.724,56.109,48.612z M80.488,56.35H57.721c-0.888,0-1.611,0.722-1.611,1.61s0.723,1.61,1.611,1.61h22.767c0.889,0,1.611-0.722,1.611-1.61S81.376,56.35,80.488,56.35zM80.488,65.546H57.721c-0.888,0-1.611,0.723-1.611,1.611c0,0.888,0.723,1.611,1.611,1.611h22.767c0.889,0,1.611-0.724,1.611-1.611C82.099,66.269,81.376,65.546,80.488,65.546z"/>
</symbol>
<symbol viewBox="0 0 100 100" catalog="basic-application" id="speech65">
<path d="M50,8.602c-22.549,0-40.893,14.084-40.893,31.396c0,13.068,10.471,24.688,26.232,29.314c-0.316,4.891-1.662,9.506-4.01,13.746c-1.92,3.467-2.352,5.477-1.488,6.938c0.523,0.891,1.475,1.402,2.609,1.402c0.004,0,0.008,0,0.012,0c1.508,0,5.52-0.051,30.91-21.727c16.48-4.361,27.52-16.238,27.52-29.674C90.893,22.686,72.549,8.602,50,8.602z M61.896,65.824l-0.463,0.117l-0.363,0.311c-17.201,14.705-24.262,19.145-27.018,20.48c0.201-0.447,0.479-1.002,0.859-1.689c2.926-5.283,4.471-11.082,4.588-17.232l0.031-1.619l-1.568-0.402c-14.811-3.818-24.762-14.184-24.762-25.791c0-15.053,16.508-27.301,36.799-27.301c20.289,0,36.797,12.248,36.797,27.301C86.797,51.656,76.791,62.033,61.896,65.824z M53.057,58.898v4.768c0,0.643-0.52,1.162-1.162,1.162h-4.117c-0.641,0-1.162-0.52-1.162-1.162v-4.768c0-0.641,0.521-1.162,1.162-1.162h4.117C52.537,57.736,53.057,58.258,53.057,58.898zM58.059,21.285c0.797,0.785,1.201,1.793,1.201,2.996v9.535c0,1.309-0.346,2.5-1.031,3.537l-5.334,8.133v8.645c0,0.643-0.52,1.162-1.162,1.162h-3.793c-0.641,0-1.162-0.52-1.162-1.162v-8.098c0-1.422,0.332-2.635,0.986-3.604l5.408-8.072V25.77h-6.344v8.371c0,0.643-0.521,1.164-1.162,1.164H41.9c-0.643,0-1.162-0.521-1.162-1.164v-9.859c0-1.207,0.41-2.217,1.221-3.002c0.799-0.773,1.811-1.166,3.002-1.166h10.076C56.25,20.113,57.268,20.508,58.059,21.285z"/>
</symbol>
<symbol viewBox="0 0 24 24" catalog="material-design" id="exit13">
<path d="M10.1,15.6l1.4,1.4l5-5l-5-5l-1.4,1.4l2.6,2.6H3v2h9.7L10.1,15.6z M19,3H5C3.9,3,3,3.9,3,5v4h2V5h14v14H5v-4H3v4c0,1.1,0.9,2,2,2h14c1.1,0,2-0.9,2-2V5C21,3.9,20.1,3,19,3z"/>
</symbol>
<symbol viewBox="0 0 24 24" catalog="material-design" id="round58">
<path d="M12,2C6.5,2,2,6.5,2,12s4.5,10,10,10c5.5,0,10-4.5,10-10S17.5,2,12,2z M12,5c1.7,0,3,1.3,3,3c0,1.7-1.3,3-3,3c-1.7,0-3-1.3-3-3C9,6.3,10.3,5,12,5z M12,19.2c-2.5,0-4.7-1.3-6-3.2c0-2,4-3.1,6-3.1c2,0,6,1.1,6,3.1C16.7,17.9,14.5,19.2,12,19.2z"/>
</symbol>
<symbol viewBox="0 0 24 24" catalog="material-design" id="turn20">
<path d="M6.6,3.6L5.2,2.2C2.8,4,1.2,6.8,1,10h2C3.2,7.3,4.5,5,6.6,3.6z M20,10h2c-0.2-3.2-1.7-6-4.1-7.8l-1.4,1.4C18.5,5,19.8,7.3,20,10z M18,10.5c0-3.1-2.1-5.6-5-6.3V3.5C13,2.7,12.3,2,11.5,2C10.7,2,10,2.7,10,3.5v0.7c-2.9,0.7-5,3.2-5,6.3V16l-2,2v1h17v-1l-2-2V10.5z M11.5,22c0.1,0,0.3,0,0.4,0c0.7-0.1,1.2-0.6,1.4-1.2c0.1-0.2,0.2-0.5,0.2-0.8h-4C9.5,21.1,10.4,22,11.5,22z"/>
</symbol>
<symbol viewBox="0 0 24 24" catalog="material-design" id="notifications1">
<path d="M11.5,22c1.1,0,2-0.9,2-2h-4C9.5,21.1,10.4,22,11.5,22z M18,16v-5.5c0-3.1-2.1-5.6-5-6.3V3.5C13,2.7,12.3,2,11.5,2C10.7,2,10,2.7,10,3.5v0.7c-2.9,0.7-5,3.2-5,6.3V16l-2,2v1h17v-1L18,16z M16,17H7v-6.5C7,8,9,6,11.5,6C14,6,16,8,16,10.5V17z"/>
</symbol>
<symbol viewBox="0 0 24 24" catalog="material-design" id="warning37">
<path d="M1,21h22L12,2L1,21z M13,18h-2v-2h2V18z M13,14h-2v-4h2V14z"/>
</symbol>
<symbol viewBox="0 0 512 512" catalog="people" id="man438">
<path d="M154.921,170.652c3.12,40.979,19.418,23.318,22.779,41.27c5.59,29.846,32.016,51.439,48.466,58.893c9.585,4.344,19.454,6.535,29.83,6.715l0,0h0.001c0.001,0,0.001,0,0.001,0h0c10.376-0.18,20.245-2.371,29.83-6.715c16.45-7.453,42.876-29.047,48.466-58.893c3.361-17.951,19.659-0.29,22.779-41.27c0-16.332-8.897-20.393-8.897-20.393s4.521-24.17,6.294-42.768c2.196-23.182-13.531-83.055-97.41-83.055c-0.366,0-0.707,0.018-1.063,0.021c-0.356-0.004-0.697-0.021-1.063-0.021c-83.879,0-99.606,59.873-97.41,83.055c1.772,18.598,6.294,42.768,6.294,42.768S154.921,154.32,154.921,170.652z"/>
<path d="M386.854,334.422c-18.168-6.553-49.795-25.438-55.214-28.353c-1.405-0.815-3.031-1.292-4.773-1.292c-3.801,0-7.074,2.233-8.598,5.458c-14.98,25.08-42.753,83.751-62.132,85.101c-19.38-1.35-47.152-60.021-62.133-85.101c-1.524-3.225-4.796-5.458-8.598-5.458c-1.742,0-3.369,0.477-4.773,1.292c-5.417,2.915-37.046,21.8-55.213,28.353c-60.987,21.99-88.416,44.418-88.416,59.709c0,15.275,0,100.182,0,100.182h219.133h219.132c0,0,0-84.906,0-100.182C475.269,378.84,447.839,356.412,386.854,334.422z"/>
</symbol>
<symbol viewBox="0 0 512 512" catalog="people" id="woman111">
<path d="M103.856,279.711c3.107,2.171,41.034,3.579,89.338,4.227c17.011,11.274,39.524,18.193,64.25,18.383v0.006c0.038,0,0.076-0.002,0.115-0.003c0.038,0.001,0.076,0.003,0.114,0.003v-0.006c24.726-0.189,47.239-7.108,64.25-18.383c48.304-0.647,86.23-2.056,89.338-4.227c14.14-9.88-34.811-25.105-34.811-152.921c0-64.581-52.354-116.935-116.936-116.935c-0.547,0-3.366,0-3.913,0c-64.582,0-116.936,52.354-116.936,116.935C138.667,254.605,89.717,269.831,103.856,279.711z"/>
<path d="M382.134,345.102c-17.314-6.244-47.455-24.242-52.619-27.02c-1.339-0.777-2.889-1.231-4.549-1.231c-3.623,0-6.742,2.128-8.195,5.202c-14.275,23.9-40.741,93.402-59.211,94.689c-18.469-1.287-44.936-70.789-59.213-94.689c-1.453-3.074-4.571-5.202-8.194-5.202c-1.661,0-3.211,0.454-4.55,1.231c-5.163,2.777-35.303,20.775-52.618,27.02c-58.121,20.957-84.26,42.33-84.26,56.904c0,14.557,0,95.473,0,95.473H257.56h208.834c0,0,0-80.916,0-95.473C466.394,387.432,440.253,366.059,382.134,345.102z"/>
</symbol>
<symbol viewBox="0 0 24 24" catalog="material-design" id="rounded54">
<path d="M13,7h-2v4H7v2h4v4h2v-4h4v-2h-4V7z M12,2C6.5,2,2,6.5,2,12s4.5,10,10,10c5.5,0,10-4.5,10-10S17.5,2,12,2z M12,20c-4.4,0-8-3.6-8-8s3.6-8,8-8c4.4,0,8,3.6,8,8S16.4,20,12,20z"/>
</symbol>
</svg>
