<?xml version="1.0" encoding="utf-8"?>
<!DOCTYPE svg PUBLIC "-//W3C//DTD SVG 1.1//EN" "http://www.w3.org/Graphics/SVG/1.1/DTD/svg11.dtd">
<svg version="1.1" xmlns="http://www.w3.org/2000/svg" xmlns:xlink="http://www.w3.org/1999/xlink">
    <symbol id="menu" viewBox="0 0 1024 1024">
	<path d="M128 768h768v-85.333h-768v85.333zM128 554.667h768v-85.333h-768v85.333zM128 256v85.333h768v-85.333h-768z"></path>
    </symbol>
    <symbol id="agenda" viewBox="0 0 1839 1024">
	<path class="path1" d="M278.666 490.878c2.779 0 5.559-0.618 8.152-1.729l378.534-154.959c8.461-3.52 13.896-11.735 13.587-20.752-0.247-9.079-5.867-16.984-14.761-19.949l-378.719-128.587c-6.485-2.223-13.834-1.050-19.517 2.965-5.682 4.076-9.079 10.685-9.079 17.725v283.422c0 7.226 3.459 14.205 9.635 18.096 3.644 2.47 7.844 3.767 12.167 3.767z"></path>
	<path class="path2" d="M1656.002 636.078c-76.893 0-142.73 47.618-169.534 114.505h-395.024c-27.051-67.073-92.642-114.505-169.164-114.505-76.831 0-142.668 47.618-169.473 114.505h-400.212c-21.987-55.338-70.655-96.903-129.945-109.997v-491.866c20.072-11.364 34.277-32.054 34.277-56.759 0-36.501-29.584-66.084-66.146-66.084-36.501 0-66.084 29.584-66.084 66.084 0 23.963 13.402 43.974 32.486 55.585v490.939c-88.689 12.785-157.182 88.257-157.182 180.528 0 101.103 81.957 182.998 182.998 182.998 76.893 0 142.792-47.618 169.534-114.505h400.151c27.051 67.196 92.642 114.505 169.473 114.505 76.522 0 142.421-47.618 169.164-114.505h395.024c27.051 67.196 92.642 114.505 169.534 114.505 101.103 0 182.998-81.895 182.998-182.998 0.124-101.041-81.834-182.937-182.875-182.937z"></path>
    </symbol>
    <symbol id="professor7" viewBox="0 0 754 1024">
	<path class="path1" d="M332.122 144.127c0 79.599-64.528 144.127-144.127 144.127s-144.127-64.528-144.127-144.127c0-79.599 64.528-144.127 144.127-144.127s144.127 64.528 144.127 144.127z"></path>
	<path class="path2" d="M310.38 958.165v-313.646h9.158l13.353-260.459 7.525 2.53v-75.666l-18.86-0.961h-81.109l-54.948 63.722-53.155-63.722-116.621 15.754-7.653 265.006h49.537l2.626 53.795h7.557v313.646h-9.927l-57.862 12.488v53.347h49.248l57.51-9.382 0.512 9.382h63.658v-322.452h36.28v322.452h63.69l0.512-9.382 57.478 9.382h49.248v-53.347l-57.83-12.488z"></path>
	<path class="path3" d="M714.005 773.211h-389.6v-522.999h389.6v522.999zM356.426 741.19h325.558v-458.957h-325.558v458.957z"></path>
	<path class="path4" d="M656.623 367.601h97.408v108.071h-97.408v-108.071z"></path>
	<path class="path5" d="M385.213 510.351h69.774v169.295h-69.774v-169.295z"></path>
	<path class="path6" d="M471.413 463.856h69.742v215.758h-69.742v-215.758z"></path>
	<path class="path7" d="M556.461 367.601h69.774v312.013h-69.774v-312.013z"></path>
	<path class="path8" d="M561.232 220.817c0-18.38-15.53-33.334-34.679-33.334s-34.679 14.954-34.679 33.334h-58.054v84.087h185.466v-84.087h-58.054zM526.554 236.699c-7.717 0-14.025-6.244-14.025-14.025s6.276-14.025 14.025-14.025 14.025 6.244 14.025 14.025-6.308 14.025-14.025 14.025z"></path>
</symbol>
    <symbol id="shake" viewBox="0 0 1024 1024">
	<path class="path1" d="M1018.44 373.16l-215.828-215.886c-4.936-4.856-12.771-4.858-17.605 0l-49.693 49.5c-2.359 2.363-3.625 5.554-3.625 8.829 0 3.377 1.26 6.466 3.625 8.774l21.885 21.932-51.642 51.696-193.006 22.999-192.954-22.97-51.853-51.829 21.803-21.766c2.279-2.31 3.65-5.421 3.65-8.776 0-3.297-1.343-6.466-3.65-8.829l-49.652-49.502c-4.844-4.856-12.718-4.856-17.588 0l-216.75 215.88c-4.858 4.825-4.86 12.718 0 17.543l49.49 49.584c0.477 0.483 0.995 0.952 1.532 1.399l103.068 162.324c5.874 10.887 16.542 29.893 21.637 34.935l215.654 215.722c9.953 9.931 22.782 15.649 35.445 15.649 9.834 0 18.903-3.574 25.424-10.115l3.205-3.088 0.131 0.131c12.757 12.767 34.236 14.916 51.327 5.687 17.16 9.228 38.676 7.080 51.341-5.638l0.16-0.188 3.168 3.090c6.463 6.543 15.507 10.113 25.436 10.113 12.556 0 25.487-5.716 35.416-15.647l215.724-215.667 122.597-196.194 52.128-52.156c2.306-2.335 3.645-5.446 3.645-8.772 0.002-3.324-1.284-6.433-3.645-8.763zM797.245 200.55c9.658 0 17.33 7.864 17.33 17.443 0 9.66-7.723 17.523-17.33 17.523-9.714 0-17.629-7.916-17.629-17.521 0-9.581 7.864-17.414 17.629-17.445zM208.103 216.437c1.962-9.39 11.323-15.426 20.81-13.441 9.39 1.985 15.442 11.268 13.429 20.66-1.972 9.419-11.268 15.507-20.66 13.523-9.46-1.987-15.55-11.379-13.578-20.742zM643.584 762.667c2.98 3.090 4.297 6.463 1.745 8.993l-25.973 25.944c-0.748 0.752-2.007 0.987-2.843 0.987-2.15 0-4.401-1.047-6.175-2.816l-31.232-31.662-96.029-95.891-26.604 26.497c0.070 0.070 0.123 0.15 0.193 0.215l103.18 103.229c0.987 1.018 3.457 3.914 1.313 6.033 0 0-20.791 20.822-25.111 25.117-4.27 4.297-9.015-1.827-9.015-1.827l-106.346-106.437c-17.508 0-35.017-0.002-52.525-0.002 0.416 0.592 0.864 1.161 1.391 1.677l79.368 79.313c2.576 2.552 5.509 5.943 3.031 8.436l-20.609 20.523c-2.081 2.064-5.515 1.399-8.679-1.905l-215.216-215.126c-6.429-9.259-58.575-97.321-95.615-160.047l154.077-154.036 33.366 33.97c2.185 2.226 5.071 3.541 8.184 3.727l85.701 9.232c-9.873 10.625-15.254 25.946-13.134 42.179l5.9 46.551c3.539 27.179 26.761 47.223 52.425 44.136l56.32-5.284 184.893 186.241c2.98 3.027 2.98 7.909 0 10.865l-29.835 29.889c-2.867 2.853-7.991 2.851-10.869 0.002l-118.014-118.041v56.529l122.737 122.788zM817.533 614.074l-136.491 136.542-12.1-12.88 38.265-38.443c26.061-26.061 18.217-52.55-16.687-87.333l-149.801-147.708c0 0 8.184-7.004 8.72-7.406l-8.368-27.316-106.371 9.742c-0.268 0-1.395 0.027-1.706 0.080-3.877 0-7.469-3.867-8.102-8.774l-5.982-46.498c-0.389-2.951 0.295-5.931 1.972-8.051 0.846-1.071 2.255-2.388 4.348-2.736l292.471-35.6c3.088-0.162 5.956-1.532 8.151-3.703l33.352-33.968 154.12 154.036c-37.036 62.779-89.197 150.753-95.791 160.014z"></path>
</symbol>
    <symbol id="teacher7" viewBox="0 0 1162 1024">
	<path class="path1" d="M332.1 144.129c0 79.6-64.529 144.129-144.129 144.129s-144.129-64.529-144.129-144.129c0-79.6 64.529-144.129 144.129-144.129s144.129 64.529 144.129 144.129z"></path>
	<path class="path2" d="M1147.475 183.609h-348.429v-39.481h-92.383v39.481h-354.506v47.533h23.524v104.648l-54.132-25.836h-81.124l-54.952 63.713-53.163-63.713-116.802 21.698-7.456 259.066h49.509l2.684 53.797h7.531v313.609h-9.954l-57.823 12.564v53.312h49.248l57.487-9.358 0.522 9.358h63.676v-322.444h36.275v322.444h63.676l0.522-9.358 57.487 9.358h49.248v-53.312l-57.898-12.526h-9.879v-313.609h9.134l11.781-238.599 44.402 20.095v274.203h340.6v87.35l-187.971 212.092h67.553l126.868-143.346v143.346h38.847v-143.197l126.718 143.197h68.635l-189.052-212.092v-87.35h379.596v-469.108h14.875v-47.533h-14.875zM1114.22 665.281h-705.247v-224.209l138.574 62.744-0.522-86.38-138.052-65.801v-120.493h705.247v434.138z"></path>
	<path class="path3" d="M901.084 562.46h74.227v74.189h-74.227v-74.189z"></path>
	<path class="path4" d="M806.241 497.852h74.227v138.835h-74.227v-138.835z"></path>
	<path class="path5" d="M715.536 411.919h74.189v224.73h-74.189v-224.73z"></path>
	<path class="path6" d="M622.035 336.313h74.264v300.374h-74.264v-300.374z"></path>
	<path class="path7" d="M991.826 552.431l43.47 10.029-10.029-43.47-12.564 12.601-322.705-282.069-7.27 8.351 322.183 281.51z"></path>
</symbol>
</svg>
