<?xml version="1.0" encoding="utf-8"?>
<!DOCTYPE svg PUBLIC "-//W3C//DTD SVG 1.1//EN" "http://www.w3.org/Graphics/SVG/1.1/DTD/svg11.dtd">
<svg class="icons" version="1.1" xmlns="http://www.w3.org/2000/svg" xmlns:xlink="http://www.w3.org/1999/xlink">
    <symbol viewBox="0 0 96 96" catalog="internet" id="closed53">
<rect x="70.172" y="54.191" width="5.287" height="13.549"/>
<circle cx="72.816" cy="49.472" r="3.101"/>
<path d="M78.703,37.902v-5.178v-0.221L41.417,45.781l-0.65,0.229l-0.65-0.229L2.83,32.504v0.221v33.531c0,1.553,1.259,2.813,2.811,2.813h49.775c3.707,5.514,10,9.148,17.127,9.148c11.374,0,20.627-9.254,20.627-20.629C93.17,48.359,87.077,40.527,78.703,37.902z M72.543,71.949c-7.918,0-14.361-6.441-14.361-14.361c0-7.918,6.442-14.359,14.361-14.359s14.361,6.441,14.361,14.359C86.904,65.508,80.461,71.949,72.543,71.949z"/>
<path d="M78.703,26.154v-5.561c0-1.551-1.256-2.811-2.81-2.811H5.64c-1.552,0-2.811,1.26-2.811,2.811v5.328l37.941,13.51L78.703,26.154z"/>
</symbol>
<symbol viewBox="0 0 96 96" catalog="internet" id="closed56">
<path d="M62.693,63.582h-8.339l-18.387-13.89l1.902-1.023c1.181-0.636,2.024-1.756,2.31-3.066c0.098-0.449,0.102-0.902,0.064-1.351l16.872,12.135h2.823l34.015-24.093H43.456l-0.967-7.493c-0.17-1.322-0.907-2.504-2.019-3.24c-1.112-0.735-2.489-0.952-3.771-0.592l-5.151,1.446l0.514-4.782c0.138-1.295-0.279-2.587-1.149-3.556c-0.871-0.969-2.111-1.522-3.413-1.522h-9.678c-1.302,0-2.543,0.553-3.413,1.521c-0.871,0.969-1.288,2.261-1.149,3.556l0.507,4.725L8.972,20.98c-1.261-0.363-2.617-0.167-3.725,0.536c-1.108,0.704-1.862,1.848-2.071,3.143l-1.498,9.285c-0.203,1.264,0.13,2.555,0.92,3.562c0.79,1.007,1.964,1.639,3.24,1.743l2.114,0.17l-1.851,2.493c-0.801,1.078-1.089,2.452-0.79,3.761c0.301,1.308,1.159,2.42,2.349,3.042l8.682,4.533c0.663,0.346,1.392,0.521,2.124,0.521c0.512,0,1.025-0.085,1.518-0.258c1.198-0.42,2.168-1.317,2.68-2.479l0.007-0.017v32.431H94.38V39.647L62.693,63.582z M26.991,49.041l-4.627-9.418l-4.156,9.428l-8.682-4.533l6.785-9.134L5.95,34.544l1.498-9.285l11.351,3.261l-1.235-11.508h9.678l-1.236,11.52l11.675-3.275l1.198,9.291L28.52,35.383l6.917,9.115L26.991,49.041z"/>
</symbol>
<symbol viewBox="0 0 96 96" catalog="internet" id="closed57">
<path d="M73.117,53.398c-3.084,0-5.595,2.508-5.595,5.594c0,3.084,2.511,5.594,5.595,5.594c3.083,0,5.594-2.51,5.594-5.594C78.71,55.906,76.2,53.398,73.117,53.398z"/>
<path d="M91.813,51.389c0.064-0.381,0.098-0.77,0.098-1.158c0-1.879-0.731-3.646-2.061-4.975l-2.847-2.848c-1.553-1.561-3.914-2.305-6.125-1.947c-0.906-1.277-2.23-2.229-3.768-2.68v-7.617v-0.221L39.824,43.221l-0.65,0.227l-0.65-0.227L1.238,29.943v0.221v33.531c0,1.551,1.258,2.813,2.811,2.813h49.913c0.149,0.127,0.298,0.256,0.458,0.369c-0.064,0.381-0.097,0.768-0.097,1.156c0,1.877,0.729,3.643,2.062,4.979l2.854,2.852c1.554,1.557,3.914,2.297,6.118,1.941c1.276,1.799,3.374,2.975,5.741,2.975h4.041c2.362,0,4.456-1.17,5.732-2.961c2.202,0.371,4.558-0.383,6.122-1.949l2.86-2.859c1.667-1.666,2.321-3.967,1.963-6.133c1.784-1.277,2.949-3.367,2.949-5.725v-4.041C94.762,54.756,93.597,52.666,91.813,51.389zM89.262,61.012c0,0.848-0.688,1.537-1.536,1.537h-2.443c-0.255,0.879-0.606,1.727-1.047,2.531l1.726,1.727c0.6,0.6,0.6,1.574,0,2.174l-2.858,2.857c-0.579,0.58-1.591,0.58-2.17,0l-1.729-1.727c-0.803,0.441-1.653,0.793-2.532,1.049v2.441c0,0.848-0.688,1.537-1.536,1.537h-4.041c-0.847,0-1.535-0.689-1.535-1.537V71.16c-0.879-0.256-1.729-0.607-2.533-1.049l-1.728,1.727c-0.557,0.559-1.613,0.557-2.17,0l-2.858-2.857c-0.29-0.291-0.449-0.676-0.449-1.088c0-0.404,0.164-0.801,0.45-1.086l1.726-1.727c-0.441-0.805-0.793-1.652-1.048-2.531h-2.443c-0.848,0-1.536-0.689-1.536-1.537v-4.041c0-0.846,0.688-1.535,1.536-1.535h2.443c0.255-0.879,0.606-1.729,1.048-2.533l-1.727-1.727c-0.6-0.6-0.6-1.572,0-2.172l2.858-2.857c0.579-0.58,1.591-0.58,2.17,0l1.728,1.727c0.804-0.441,1.654-0.793,2.533-1.049v-2.441c0-0.848,0.688-1.537,1.535-1.537h4.041c0.848,0,1.536,0.689,1.536,1.537v2.441c0.879,0.256,1.729,0.607,2.532,1.049l1.729-1.727c0.558-0.559,1.614-0.559,2.17,0l2.858,2.857c0.29,0.291,0.449,0.676,0.449,1.086c0,0.404-0.164,0.803-0.45,1.088l-1.725,1.727c0.44,0.805,0.792,1.652,1.047,2.531h2.443c0.848,0,1.536,0.689,1.536,1.535V61.012z"/>
<path d="M77.11,23.592v-5.559c0-1.553-1.256-2.813-2.81-2.813H4.048c-1.552,0-2.811,1.26-2.811,2.813v5.328l37.941,13.51L77.11,23.592z"/>
</symbol>
<symbol viewBox="0 0 96 96" catalog="internet" id="email47">
<path d="M72.323,63.254c-1.803,0-3.086,1.318-3.086,3.156c0,1.803,1.248,3.154,3.086,3.154c1.872,0,3.12-1.352,3.12-3.154C75.409,64.572,74.195,63.254,72.323,63.254z"/>
<path d="M72.81,45.434c-2.463,0-4.543,0.693-5.791,1.422l1.179,3.779c0.902-0.625,2.288-1.041,3.434-1.041c1.732,0.07,2.53,0.867,2.53,2.08c0,1.18-0.901,2.289-2.012,3.605c-1.56,1.873-2.149,3.676-2.045,5.443l0.035,0.902h4.61V61c-0.035-1.559,0.485-2.912,1.769-4.334c1.317-1.455,2.947-3.189,2.947-5.824C79.466,47.965,77.386,45.434,72.81,45.434z"/>
<path d="M78.703,37.902v-5.178v-0.221L41.417,45.781l-0.65,0.229l-0.65-0.229L2.83,32.504v0.221v33.531c0,1.553,1.259,2.813,2.811,2.813h49.775c3.707,5.514,10,9.148,17.127,9.148c11.374,0,20.627-9.254,20.627-20.629C93.17,48.359,87.077,40.527,78.703,37.902z M72.543,71.949c-7.918,0-14.361-6.441-14.361-14.361c0-7.918,6.442-14.359,14.361-14.359s14.361,6.441,14.361,14.359C86.904,65.508,80.461,71.949,72.543,71.949z"/>
<path d="M78.703,26.154v-5.561c0-1.551-1.256-2.811-2.81-2.811H5.64c-1.552,0-2.811,1.26-2.811,2.811v5.328l37.941,13.51L78.703,26.154z"/>
</symbol>
<symbol viewBox="0 0 96 96" catalog="internet" id="email48">
<path d="M77.107,22.699v-5.559c0-1.553-1.256-2.813-2.81-2.813H4.045c-1.552,0-2.811,1.26-2.811,2.813v5.328l37.941,13.51L77.107,22.699z"/>
<path d="M93.155,43.15l-6.656-6.656c-1.032-1.031-2.431-1.611-3.889-1.611c-1.459,0-2.858,0.58-3.889,1.611l-1.613,1.613v-8.836v-0.221L39.821,42.328l-0.65,0.227l-0.65-0.227L1.234,29.051v0.221v33.531c0,1.551,1.258,2.813,2.811,2.813h37.753l14.446,14.445c1.032,1.033,2.431,1.611,3.889,1.611c1.459,0,2.858-0.578,3.889-1.611l29.132-29.133C95.303,48.781,95.303,45.299,93.155,43.15zM60.401,75.857L40.273,55.73l6.656-6.656l13.472,13.471l22.476-22.477l6.656,6.656L60.401,75.857z"/>
</symbol>
<symbol viewBox="0 0 96 96" catalog="internet" id="envelopes">
<path d="M94.008,31.339c-0.845-0.844-1.989-1.317-3.183-1.317H62.883v-4.662H60.77l-6.114,4.662H47.91l12.842-9.792h2.131v-3.451H0.675l0.001,0.001v3.45h2.131l28.167,21.479v5.145L2.788,25.359H0.676v35.321h30.298v0.541h0.019v13.5c0,2.485,2.015,4.5,4.5,4.5h55.333c2.485,0,4.5-2.015,4.5-4.5v-40.2C95.325,33.328,94.852,32.184,94.008,31.339z M90.826,74.722H35.493V43.303h1.879l25.787,19.666l25.787-19.666h1.88V74.722z M90.826,37.591h-1.896L63.159,57.243L37.389,37.591h-1.896v-3.069h-0.001h0.001h55.333V37.591z"/>
</symbol>
<symbol viewBox="0 0 96 96" catalog="internet" id="blocked3">
<polygon points="0.863,11.792 3.455,11.792 38.689,38.662 73.926,11.792 76.518,11.792 76.518,7.595 0.861,7.595 0.863,7.596"/>
<path d="M76.518,37.745V19.603h-2.57L38.689,46.49L3.432,19.603H0.863v42.957h42.584c0,14.274,11.57,25.846,25.846,25.846c14.273,0,25.846-11.571,25.846-25.846C95.139,50.794,87.275,40.872,76.518,37.745z M69.293,83.642c-11.625,0-21.084-9.458-21.084-21.083s9.459-21.083,21.084-21.083s21.082,9.458,21.082,21.083S80.918,83.642,69.293,83.642z"/>
<path d="M69.293,48.101c-7.973,0-14.459,6.486-14.459,14.458c0,2.789,0.797,5.395,2.17,7.606L76.898,50.27C74.688,48.896,72.08,48.101,69.293,48.101z"/>
<path d="M61.688,74.848c2.211,1.374,4.816,2.169,7.605,2.169c7.973,0,14.461-6.486,14.461-14.458c0-2.789-0.797-5.395-2.172-7.606L61.688,74.848z"/>
</symbol>
<symbol viewBox="0 0 96 96" catalog="internet" id="new57">
<polygon points="74.958,45.971 70.162,45.971 70.162,61.752 83.619,61.752 83.619,56.955 74.958,56.955"/>
<path d="M78.703,37.902v-5.178v-0.221L41.417,45.781l-0.65,0.229l-0.65-0.229L2.83,32.504v0.221v33.531c0,1.553,1.259,2.813,2.811,2.813h49.775c3.707,5.514,10,9.148,17.127,9.148c11.374,0,20.627-9.254,20.627-20.629C93.17,48.359,87.077,40.527,78.703,37.902z M72.543,71.949c-7.918,0-14.361-6.441-14.361-14.361c0-7.918,6.442-14.359,14.361-14.359s14.361,6.441,14.361,14.359C86.904,65.508,80.461,71.949,72.543,71.949z"/>
<path d="M78.703,26.154v-5.561c0-1.551-1.256-2.811-2.81-2.811H5.64c-1.552,0-2.811,1.26-2.811,2.811v5.328l37.941,13.51L78.703,26.154z"/>
</symbol>
<symbol viewBox="0 0 96 96" catalog="internet" id="locked22">
<path d="M74.076,60.654c-1.749,0-3.168,1.418-3.168,3.168c0,1.084,0.547,2.043,1.379,2.613v4.838h3.579v-4.838c0.833-0.57,1.379-1.529,1.379-2.613C77.245,62.072,75.826,60.654,74.076,60.654z"/>
<path d="M78.284,24.223v-5.561c0-1.551-1.256-2.811-2.81-2.811H5.223c-1.553,0-2.811,1.26-2.811,2.811v5.328l37.94,13.51L78.284,24.223z"/>
<path d="M90.031,47.621c-0.633-6.748-5.408-12.303-11.747-14.104v-2.725v-0.221L40.998,43.85l-0.65,0.229l-0.65-0.229L2.412,30.572v0.221v33.531c0,1.553,1.258,2.813,2.811,2.813h48.887v7.512c0,3.037,2.463,5.5,5.5,5.5h28.479c3.037,0,5.5-2.463,5.5-5.5V52.768C93.588,50.414,92.109,48.406,90.031,47.621z M88.316,74.549H59.838V52.668h3.484v-3.617c0-5.93,4.824-10.754,10.754-10.754c5.931,0,10.755,4.824,10.755,10.754v3.617h3.485V74.549z"/>
<path d="M74.076,42.762c-3.468,0-6.289,2.822-6.289,6.289v3.617h12.578v-3.617C80.365,45.584,77.545,42.762,74.076,42.762z"/>
</symbol>
<symbol viewBox="0 0 96 96" catalog="internet" id="spam6">
<path d="M71.441,20.793V14.37c0-1.431-1.16-2.591-2.591-2.591H4.068c-1.431,0-2.591,1.16-2.591,2.591v6.21l34.988,12.459L71.441,20.793z"/>
<path d="M94.669,45.684c-0.859-1.807-2.681-2.958-4.681-2.958H71.441V26.207l-34.988,12.25L1.477,26.002v31.124c0,1.431,1.16,2.592,2.591,2.592h44.511l9.958,11.698v8.715c0,2.862,2.32,5.183,5.183,5.183h8.668c2.862,0,5.183-2.321,5.183-5.183v-8.777l16.435-20.172C95.269,49.631,95.527,47.491,94.669,45.684z M72.584,69.633v10.622h-8.668V69.633L45.529,48.032h44.655L72.584,69.633z"/>
</symbol>
<symbol viewBox="0 0 256 256" catalog="arrows" id="up164">
<polygon points="128,10.588 28.298,110.291 56.583,138.574 128,67.156 199.417,138.574 227.702,110.291 "/>
<polygon points="128,103.283 28.298,202.984 56.583,231.27 128,159.852 199.417,231.27 227.702,202.984 "/>
</symbol>
<symbol viewBox="0 0 256 256" catalog="arrows" id="two389">
<polygon points="128,245.411 227.702,145.71 199.417,117.425 128,188.843 56.583,117.425 28.298,145.71 "/>
<polygon points="227.702,53.014 199.417,24.73 128,96.148 56.583,24.73 28.298,53.014 128,152.717 "/>
</symbol>
<symbol viewBox="0 0 64 64" catalog="stars" id="star15">
<path d="M54.572,25.63c-0.236-0.858-1.039-1.468-1.93-1.468c-4.759,0-9.518,0-14.277,0c-1.36-4.185-2.72-8.37-4.079-12.555c-0.103-0.313-0.203-0.626-0.306-0.938c-0.002-0.005-0.005-0.009-0.006-0.015c-0.149-0.484-0.485-0.908-0.923-1.17c-0.009-0.006-0.018-0.013-0.027-0.018c-0.084-0.049-0.173-0.087-0.263-0.123c-0.037-0.015-0.072-0.031-0.11-0.043c-0.022-0.008-0.044-0.021-0.067-0.027c-0.045-0.012-0.088-0.013-0.132-0.022c-0.07-0.015-0.141-0.029-0.213-0.036c-0.054-0.005-0.106-0.005-0.16-0.006c-0.08-0.001-0.16,0-0.241,0.009c-0.045,0.005-0.088,0.014-0.132,0.022c-0.061,0.011-0.122,0.014-0.184,0.031c-0.033,0.009-0.062,0.026-0.094,0.037c-0.01,0.003-0.02,0.008-0.03,0.012c-0.602,0.214-1.079,0.728-1.266,1.333c-0.002,0.006-0.005,0.011-0.007,0.017c-1.462,4.498-2.922,8.996-4.385,13.493c-4.431,0-8.861,0-13.292,0c-0.329,0-0.657,0-0.986,0c-0.89,0-1.692,0.61-1.929,1.468c-0.256,0.931,0.184,1.724,0.919,2.259c3.797,2.758,7.593,5.516,11.39,8.274c-1.379,4.245-2.758,8.49-4.139,12.735c-0.101,0.312-0.203,0.625-0.305,0.938c-0.515,1.584,1.506,3.299,2.939,2.258c3.906-2.838,7.811-5.675,11.717-8.513c3.64,2.646,7.28,5.289,10.92,7.935c0.266,0.192,0.531,0.385,0.797,0.578c1.434,1.041,3.453-0.674,2.938-2.258c-1.48-4.559-2.963-9.116-4.444-13.675c3.53-2.564,7.061-5.129,10.592-7.694c0.266-0.193,0.531-0.386,0.797-0.58C54.389,27.354,54.828,26.561,54.572,25.63zM33.062,39.395c-0.521-0.379-1.497-0.379-2.02,0c-2.64,1.919-5.28,3.837-7.92,5.755c0.896-2.758,1.792-5.515,2.688-8.272c0.102-0.312,0.203-0.625,0.305-0.938c0.296-0.91-0.211-1.744-0.919-2.258c-2.532-1.84-5.064-3.679-7.597-5.519c2.868,0,5.736,0,8.604,0c0.329,0,0.657,0,0.986,0c0.921,0,1.651-0.616,1.929-1.468c0.978-3.009,1.956-6.02,2.934-9.029c0.875,2.697,1.751,5.393,2.628,8.089c0.102,0.313,0.202,0.625,0.305,0.938c0.277,0.852,1.008,1.468,1.929,1.468c3.197,0,6.394,0,9.59,0c-2.266,1.646-4.531,3.292-6.797,4.938c-0.267,0.193-0.532,0.387-0.799,0.58c-0.708,0.516-1.216,1.348-0.919,2.258c0.997,3.071,1.995,6.141,2.993,9.211c-2.374-1.725-4.749-3.449-7.122-5.174C33.594,39.781,33.329,39.588,33.062,39.395z"/>
</symbol>
</svg>
